<?xml version="1.0" encoding="UTF-8"?>
<svg width="18px" height="22px" viewBox="0 0 18 22" version="1.1" xmlns="http://www.w3.org/2000/svg" xmlns:xlink="http://www.w3.org/1999/xlink">
    <!-- Generator: Sketch 54.1 (76490) - https://sketchapp.com -->
    <title>Group 88</title>
    <desc>Created with Sketch.</desc>
    <g id="Styles" stroke="none" stroke-width="1" fill="none" fill-rule="evenodd" opacity="0.65">
        <g id="UI-icons" transform="translate(-199.000000, -519.000000)">
            <g id="Group-88" transform="translate(196.000000, 518.000000)">
                <rect id="Rectangle-37-Copy-5" x="0" y="0" width="24" height="24"></rect>
                <g id="book" transform="translate(3.070312, 1.476562)" fill="#000000" fill-rule="nonzero">
                    <path d="M16.1835938,0.01171875 L10.0921875,0.01171875 L8.4046875,0.01171875 L5.56875,0.01171875 L3.88125,0.01171875 L1.69921875,0.01171875 C0.76640625,0.01171875 0.01171875,0.76640625 0.01171875,1.69921875 L0.01171875,19.35 C0.01171875,20.2828125 0.76640625,21.0375 1.69921875,21.0375 L16.1859375,21.0375 C17.11875,21.0375 17.8734375,20.2828125 17.8734375,19.35 L17.8734375,1.69921875 C17.8710938,0.76640625 17.1140625,0.01171875 16.1835938,0.01171875 Z M8.4046875,1.69921875 L8.4046875,6.61875 L8.20078125,6.41484375 L7.4203125,5.634375 C7.19765625,5.41171875 6.834375,5.409375 6.609375,5.63203125 L5.56875,6.6609375 L5.56875,1.69921875 L8.4046875,1.69921875 Z M3.88125,1.69921875 L3.88125,8.1984375 C3.88125,8.66015625 4.25390625,9.0328125 4.715625,9.0328125 L4.715625,9.0328125 C5.26171875,9.0328125 5.78671875,8.8171875 6.17578125,8.4328125 L7.0078125,7.6078125 L7.82578125,8.42578125 C8.1984375,8.7984375 8.7,9.01640625 9.22734375,9.0328125 L9.26015625,9.0328125 C9.721875,9.0328125 10.0945313,8.66015625 10.0945313,8.1984375 L10.0945313,1.69921875 L16.1859375,1.69921875 L16.1859375,16.33125 L1.7015625,16.33125 L1.7015625,1.69921875 L3.88125,1.69921875 Z M1.69921875,19.35 L1.69921875,18.01875 L16.1835938,18.01875 L16.1835938,19.35 L1.69921875,19.35 Z" id="Shape"></path>
                </g>
            </g>
        </g>
    </g>
</svg>