<!-- Generated by IcoMoon.io -->
<svg version="1.1" xmlns="http://www.w3.org/2000/svg" width="24" height="24" viewBox="0 0 24 24">
<title>fire</title>
<path d="M20.949 13.978c-0.275-3.451-1.941-5.614-3.412-7.523-1.361-1.767-2.537-3.293-2.537-5.544 0-0.181-0.105-0.346-0.271-0.429s-0.368-0.070-0.52 0.037c-2.208 1.524-4.050 4.091-4.694 6.541-0.447 1.706-0.506 3.623-0.514 4.89-2.039-0.42-2.501-3.361-2.506-3.393-0.023-0.153-0.12-0.285-0.26-0.358-0.142-0.072-0.309-0.077-0.453-0.008-0.107 0.050-2.625 1.283-2.771 6.209-0.010 0.164-0.011 0.328-0.011 0.493 0 4.785 4.038 8.678 9 8.678 0.007 0 0.014 0.001 0.020 0 0.002 0 0.004 0 0.006 0 4.95-0.014 8.974-3.902 8.974-8.678 0-0.241-0.051-0.914-0.051-0.914zM12 22.606c-1.654 0-3-1.382-3-3.081 0-0.058-0-0.116 0.004-0.188 0.020-0.717 0.161-1.206 0.316-1.531 0.29 0.601 0.809 1.153 1.651 1.153 0.276 0 0.5-0.216 0.5-0.482 0-0.686 0.015-1.478 0.192-2.193 0.158-0.634 0.535-1.308 1.012-1.848 0.212 0.702 0.626 1.269 1.031 1.823 0.579 0.793 1.177 1.613 1.282 3.010 0.006 0.083 0.013 0.166 0.013 0.256-0 1.699-1.346 3.081-3 3.081z"></path>
</svg>
