<!-- Generated by IcoMoon.io -->
<svg version="1.1" xmlns="http://www.w3.org/2000/svg" width="24" height="24" viewBox="0 0 24 24">
<title>notepad</title>
<path d="M21.637 14.284c0.479 0.479 0.479 1.259 0 1.738l-6.336 6.336-3.202 0.873-0.214 0.214c-0.074 0.075-0.177 0.121-0.291 0.121-0 0-0 0-0 0v0c-0.112-0-0.214-0.046-0.288-0.119l0 0-0.008 0.002 0.002-0.008c-0.073-0.074-0.118-0.176-0.118-0.288 0-0.113 0.046-0.216 0.12-0.291l0.214-0.214 0.873-3.202 6.336-6.336c0.464-0.464 1.274-0.464 1.738 0l1.173 1.173zM13.902 19.602l1.217 1.217 3.831-3.769-1.217-1.217-3.831 3.769zM13.083 20.593l-0.406 1.445 1.392-0.486-0.986-0.959zM20.614 15.33c0.050-0.050 0.081-0.12 0.081-0.197s-0.031-0.146-0.081-0.197v0l-0.803-0.804c-0.105-0.105-0.288-0.105-0.393 0l-0.8 0.801 1.196 1.198 0.8-0.801zM4.752 17.729c-0.123 0-0.416-0.163-0.416-0.633s0.293-0.633 0.416-0.633h5.788c0.123 0 0.484 0.179 0.484 0.633s-0.361 0.633-0.484 0.633h-5.788zM5.153 8.546c-0.344 0-0.647-0.253-0.647-0.672s0.303-0.672 0.647-0.672h8.103c0.344 0 0.657 0.253 0.657 0.672s-0.313 0.672-0.657 0.672h-8.103zM6.966 13.371c-0.206 0-0.529-0.186-0.529-0.664s0.323-0.664 0.529-0.664h5.237c0.206 0 0.466 0.23 0.466 0.664s-0.26 0.664-0.466 0.664h-5.237zM16.129 13.282c-0.137 0.132-0.327 0.211-0.516 0.211s-0.378-0.079-0.516-0.211c-0.131-0.137-0.211-0.319-0.211-0.516 0-0.189 0.080-0.378 0.211-0.516 0.269-0.269 0.756-0.269 1.033 0 0.131 0.138 0.211 0.327 0.211 0.516s-0.080 0.379-0.211 0.516zM10.274 21.726c0.228 0 0.561 0.228 0.561 0.815s-0.333 0.913-0.561 0.913h-6.982c-0.905 0-1.288-0.435-1.288-1.24v-19.378c0-0.803 0.38-1.335 1.38-1.335h2.38c0-0.532 0.412-1.066 1.106-1.066h8.027c0.747 0 1.158 0.548 1.158 0.971v0.096h2.228c1.066 0 1.274 0.654 1.274 1.212v9.214c0 0.228-0.046 0.535-0.702 0.535s-0.967-0.307-0.967-0.535v-8.613h-1.833c0 0.74-0.483 1.106-1.158 1.106h-8.027c-0.765 0-1.106-0.594-1.106-1.106h-1.985v18.411h6.494zM7.481 2.033v0.803h6.754v-0.803h-6.754z"></path>
</svg>
