<?xml version="1.0" encoding="UTF-8"?>
<svg width="14px" height="14px" viewBox="0 0 14 14" version="1.1" xmlns="http://www.w3.org/2000/svg" xmlns:xlink="http://www.w3.org/1999/xlink">
    <title>编组 2</title>
    <g id="页面-1" stroke="none" stroke-width="1" fill="none" fill-rule="evenodd">
        <g id="Apple-TV" transform="translate(-312.000000, -172.000000)" fill-rule="nonzero">
            <g id="编组-2" transform="translate(312.000000, 172.000000)">
                <rect id="矩形" fill="#000000" opacity="0" x="0" y="0" width="14" height="14"></rect>
                <path d="M7.5,12.5 L7.5,13.5 L6.5,13.5 L6.5,12.5 L7.5,12.5 Z M7.5,10.5 L7.5,11.5 L6.5,11.5 L6.5,10.5 L7.5,10.5 Z M7.5,8.5 L7.5,9.5 L6.5,9.5 L6.5,8.5 L7.5,8.5 Z M7.5,6.5 L7.5,7.5 L6.5,7.5 L6.5,6.5 L7.5,6.5 Z M9.5,6.5 L9.5,7.5 L8.5,7.5 L8.5,6.5 L9.5,6.5 Z M11.5,6.5 L11.5,7.5 L10.5,7.5 L10.5,6.5 L11.5,6.5 Z M13.5,6.5 L13.5,7.5 L12.5,7.5 L12.5,6.5 L13.5,6.5 Z M7.5,4.5 L7.5,5.5 L6.5,5.5 L6.5,4.5 L7.5,4.5 Z M7.5,2.5 L7.5,3.5 L6.5,3.5 L6.5,2.5 L7.5,2.5 Z M7.5,0.5 L7.5,1.5 L6.5,1.5 L6.5,0.5 L7.5,0.5 Z" id="形状结合" fill="#979797"></path>
            </g>
        </g>
    </g>
</svg>